Coordinates
version=1
nRows=17
nColumns=40
inDegrees=yes

Units are S.I. units (second, meters, Newtons, ...)
Angles are in degrees.

endheader
time	pelvis_tilt	pelvis_list	pelvis_rotation	pelvis_tx	pelvis_ty	pelvis_tz	hip_flexion_r	hip_adduction_r	hip_rotation_r	knee_angle_r	knee_angle_r_beta	ankle_angle_r	subtalar_angle_r	mtp_angle_r	hip_flexion_l	hip_adduction_l	hip_rotation_l	knee_angle_l	knee_angle_l_beta	ankle_angle_l	subtalar_angle_l	mtp_angle_l	lumbar_extension	lumbar_bending	lumbar_rotation	arm_flex_r	arm_add_r	arm_rot_r	elbow_flex_r	pro_sup_r	wrist_flex_r	wrist_dev_r	arm_flex_l	arm_add_l	arm_rot_l	elbow_flex_l	pro_sup_l	wrist_flex_l	wrist_dev_l
      1.92000000	     -2.40472014	     -1.30355126	      9.61421452	      0.26137790	      0.87534619	     -1.50462459	     29.00831845	     -4.88035093	    -20.34314221	    -20.82643285	     -0.36348982	      5.58283529	     -4.82823614	      5.27828679	      1.42979683	      2.21890267	      3.30841624	    -30.59128171	     -0.53391859	     15.54582782	      4.22036987	     -9.79543857	     -3.76292706	      0.12585277	    -11.31572441	     -5.66685862	     -6.51350840	    -17.67063264	     22.85201507	     89.95437384	      0.00000000	      0.00000000	      7.78235889	     13.34633791	     18.09158838	     56.64508289	     89.95437384	      0.00000000	      0.00000000
      1.93000000	     -2.31427304	     -1.29170983	      9.69580310	      0.26986301	      0.87481899	     -1.50374017	     28.77838122	     -4.82597990	    -20.52730819	    -21.58756682	     -0.37677412	      4.55033512	     -5.24578950	      5.36990740	      0.84673073	      2.34877299	      2.93493534	    -30.74947979	     -0.53667967	     15.67144406	      4.34519186	     -9.66237017	     -3.67193655	      0.26112082	    -11.40156264	     -5.71184351	     -6.59244416	    -17.62515954	     22.64288745	     89.95437384	      0.00000000	      0.00000000	      7.60097791	     13.29880355	     18.09803579	     56.62470798	     89.95437384	      0.00000000	      0.00000000
      1.94000000	     -2.19584599	     -1.25932260	      9.75847684	      0.27820408	      0.87444597	     -1.50283133	     28.50774764	     -4.82736488	    -20.88045811	    -22.22076546	     -0.38782552	      3.16406867	     -5.90943517	      5.55753555	      0.30352515	      2.41693268	      2.39521468	    -31.05141289	     -0.54194939	     15.46085822	      4.70085290	     -9.47355590	     -3.64171730	      0.37393683	    -11.41958916	     -5.78620574	     -6.68279863	    -17.51255564	     22.56040100	     89.95437384	      0.00000000	      0.00000000	      7.45745981	     13.15946257	     18.16926126	     56.61664557	     89.95437384	      0.00000000	      0.00000000
      1.95000000	     -2.35121480	     -1.12568255	      9.69750982	      0.28657190	      0.87386871	     -1.50167719	     28.49263091	     -4.83561934	    -20.51114162	    -22.66523094	     -0.39558291	      2.87911926	     -5.77819895	      5.45646744	      0.13515613	      2.38706987	      2.16275844	    -31.50202709	     -0.54981409	     14.99033551	      4.58565112	     -9.25322197	     -3.33287324	      0.32366857	    -11.32458307	     -6.05481462	     -6.71751419	    -17.43656060	     22.82045327	     89.95437384	      0.00000000	      0.00000000	      7.19114283	     13.08135312	     18.13956897	     56.61065313	     89.95437384	      0.00000000	      0.00000000
      1.96000000	     -2.20164173	     -1.34440622	      9.71042864	      0.29450092	      0.87415491	     -1.50061251	     28.23447142	     -4.27922289	    -19.67743468	    -23.00729523	     -0.40155305	      0.87097620	     -9.21452366	      6.11369752	     -0.31341957	      2.44788268	      0.81930526	    -31.90566539	     -0.55685891	     14.78179512	      6.96260223	     -8.96529153	     -3.36966518	      0.76202458	    -11.33626199	     -5.86413648	     -6.84007351	    -17.39447611	     22.52396096	     89.95437384	      0.00000000	      0.00000000	      7.12944320	     12.82825859	     18.37134809	     56.30136495	     89.95437384	      0.00000000	      0.00000000
      1.97000000	     -2.22686891	     -1.41626558	      9.60621181	      0.30295030	      0.87409593	     -1.49930805	     28.26087697	     -4.12053226	    -19.24990522	    -23.87900904	     -0.41676733	      0.27960293	     -8.95991968	      6.04284634	     -0.50783792	      2.63293287	      0.61928718	    -32.48397778	     -0.56695237	     14.21140159	      6.95883810	     -8.71474720	     -3.17244460	      0.96879929	    -11.24094151	     -5.94199135	     -6.91612774	    -17.28914125	     22.59337061	     89.95437384	      0.00000000	      0.00000000	      6.86468709	     12.69835859	     18.39799564	     56.10451078	     89.95437384	      0.00000000	      0.00000000
      1.98000000	     -2.19142996	     -1.57769791	      9.45915133	      0.31148024	      0.87429002	     -1.49781031	     28.18688328	     -3.81358896	    -18.85904156	    -24.70064599	     -0.43110760	     -0.30845066	     -8.82196794	      5.99811641	     -0.68402340	      2.94146514	      0.43156133	    -33.19024528	     -0.57927906	     13.53878148	      7.28215917	     -8.44132604	     -3.02379069	      1.25521980	    -11.08737763	     -5.93542104	     -7.03994218	    -17.15490544	     22.45902153	     89.95437384	      0.00000000	      0.00000000	      6.57829943	     12.53807901	     18.50707384	     55.83358220	     89.95437384	      0.00000000	      0.00000000
      1.99000000	     -2.12056233	     -1.77287385	      9.27055796	      0.32017263	      0.87472083	     -1.49624558	     27.89610973	     -3.41301549	    -18.59297966	    -25.22428737	     -0.44024687	     -0.70300159	     -8.89259946	      5.99716568	     -0.83812325	      3.29181598	      0.34648699	    -34.01227211	     -0.59362613	     12.72475171	      7.93431080	     -8.15528354	     -2.87531558	      1.57628914	    -10.95485178	     -5.82852606	     -7.11896983	    -16.95530409	     22.09062369	     89.95437384	      0.00000000	      0.00000000	      6.21997787	     12.33077646	     18.64290798	     55.52502557	     89.95437384	      0.00000000	      0.00000000
      2.00000000	     -2.25676582	     -1.65384169	      9.04441173	      0.32901389	      0.87501219	     -1.49481737	     27.72326547	     -3.38345311	    -18.28542023	    -25.62157834	     -0.44718090	     -0.82278923	     -8.62825490	      5.87790181	     -0.95184597	      3.21040449	      0.16826007	    -34.57797178	     -0.60349946	     12.21783184	      7.74812828	     -7.95496404	     -2.52035769	      1.50531767	    -10.81277191	     -6.02871619	     -7.16293579	    -16.88051413	     22.37012197	     89.95437384	      0.00000000	      0.00000000	      5.66440352	     12.26454301	     18.64098766	     55.36002857	     89.95437384	      0.00000000	      0.00000000
      2.01000000	     -2.10479362	     -2.16876253	      8.88405893	      0.33733589	      0.87589751	     -1.49297982	     27.14579611	     -2.41441539	    -17.76132981	    -25.58794408	     -0.44659387	     -1.26994643	    -10.31643073	      6.35964711	     -0.85970108	      3.83590850	     -0.10894186	    -35.82110047	     -0.62519614	     10.87576914	     10.06376633	     -7.57724881	     -2.49983969	      2.17310209	    -10.84871654	     -5.67838253	     -7.29845941	    -16.68326005	     22.00569703	     89.95437384	      0.00000000	      0.00000000	      5.25217400	     11.98490487	     19.11863634	     55.04479590	     89.95437384	      0.00000000	      0.00000000
      2.02000000	     -2.11167295	     -2.14585656	      8.60217999	      0.34562799	      0.87653283	     -1.49125586	     26.87498372	     -2.20780237	    -17.48188021	    -26.06982424	     -0.45500427	     -1.03733524	    -10.17388002	      6.23708446	     -0.72108801	      3.91046003	     -0.09273573	    -36.92387501	     -0.64444319	      9.64073765	     10.22747489	     -7.27640166	     -2.36971853	      2.20637378	    -10.60572078	     -5.64171653	     -7.34487740	    -16.53767466	     21.98388705	     89.95437384	      0.00000000	      0.00000000	      4.88247256	     11.86548466	     19.13689420	     54.67816757	     89.95437384	      0.00000000	      0.00000000
      2.03000000	     -2.14404702	     -2.16150844	      8.31129664	      0.35389631	      0.87723606	     -1.48946547	     26.55914319	     -1.90285590	    -17.15273847	    -26.37622824	     -0.46035203	     -0.78252125	     -9.91031812	      6.09507170	     -0.41989971	      4.00900637	     -0.09851190	    -38.19888880	     -0.66669638	      8.13003126	     10.53585901	     -6.92346280	     -2.19082169	      2.24927536	    -10.48123397	     -5.54769114	     -7.37786313	    -16.39456304	     22.03155838	     89.95437384	      0.00000000	      0.00000000	      4.39654751	     11.77769733	     19.22573336	     54.33363357	     89.95437384	      0.00000000	      0.00000000
      2.04000000	     -2.19560862	     -2.22036417	      8.14983742	      0.36192816	      0.87793683	     -1.48761502	     26.18772421	     -1.53950982	    -16.83571793	    -26.54178257	     -0.46324150	     -0.37654190	     -9.70197317	      5.95587403	      0.13972906	      4.28445316	      0.14900095	    -39.72786988	     -0.69338213	      6.20638451	     11.18271889	     -6.49438857	     -2.05565266	      2.34655474	    -10.38553172	     -5.47843192	     -7.38398283	    -16.31705311	     22.11730844	     89.95437384	      0.00000000	      0.00000000	      3.99607726	     11.67643422	     19.31755736	     53.95728206	     89.95437384	      0.00000000	      0.00000000
      2.05000000	     -2.21647035	     -2.24790708	      7.92615272	      0.36984158	      0.87869107	     -1.48568103	     25.76338598	     -1.19824357	    -16.61185429	    -26.66410348	     -0.46537640	     -0.01622525	     -9.49457320	      5.82403599	      0.74735916	      4.47881817	      0.31051330	    -41.38360169	     -0.72228011	      4.34645125	     11.79329315	     -6.09059212	     -1.94492634	      2.36793207	    -10.24132173	     -5.37537865	     -7.35521704	    -16.21201226	     22.20920725	     89.95437384	      0.00000000	      0.00000000	      3.58585971	     11.55269277	     19.41571296	     53.59609387	     89.95437384	      0.00000000	      0.00000000
      2.06000000	     -2.37982099	     -2.46280178	      7.80699639	      0.37784447	      0.87917370	     -1.48371956	     25.41115570	     -0.68075011	    -16.47612027	    -26.62949613	     -0.46477239	      0.43461779	     -9.49107218	      5.77246386	      1.67723355	      4.94089168	      0.55944942	    -43.15169446	     -0.75313915	      1.92936722	     12.81529722	     -5.57488669	     -1.61519433	      2.58269087	    -10.29309399	     -5.30252613	     -7.35549559	    -16.07889585	     22.36072922	     89.95437384	      0.00000000	      0.00000000	      3.04359542	     11.48994934	     19.50611472	     53.19289297	     89.95437384	      0.00000000	      0.00000000
      2.07000000	     -2.32338584	     -2.28113174	      7.58798046	      0.38530003	      0.87996786	     -1.48196459	     24.86983185	     -0.60468836	    -16.35027993	    -26.71823990	     -0.46632126	      0.74634576	     -9.30719089	      5.65350152	      2.38842407	      4.91285751	      0.76663379	    -44.99517069	     -0.78531388	      0.07304123	     12.94997737	     -5.20153120	     -1.71792095	      2.41235914	    -10.08795506	     -5.19902234	     -7.34039466	    -15.88097800	     22.68771895	     89.95437384	      0.00000000	      0.00000000	      2.72282746	     11.39999814	     19.54567167	     52.81350227	     89.95437384	      0.00000000	      0.00000000
      2.08000000	     -2.49472955	     -2.61655036	      7.53845647	      0.39283018	      0.88029460	     -1.47996512	     24.50864646	      0.00800395	    -16.40006517	    -26.58741069	     -0.46403786	      1.30813770	     -9.25352993	      5.59030321	      3.59566537	      5.53539240	      0.91518067	    -46.90543696	     -0.81865431	     -2.76061446	     13.74443482	     -4.59802875	     -1.43507979	      2.74857415	    -10.13996030	     -5.12193494	     -7.35297181	    -15.74733080	     23.01158212	     89.95437384	      0.00000000	      0.00000000	      2.26386568	     11.30713477	     19.58399695	     52.37638462	     89.95437384	      0.00000000	      0.00000000
